<?xml version="1.0" encoding="UTF-8" standalone="no"?>
<!-- Created with Inkscape (http://www.inkscape.org/) -->

<svg
   sodipodi:docname="get-outside-logo.svg"
   id="svg5"
   version="1.1"
   viewBox="0 0 200 80"
   height="80"
   width="200"
   inkscape:version="1.2.2 (732a01da63, 2022-12-09)"
   xmlns:inkscape="http://www.inkscape.org/namespaces/inkscape"
   xmlns:sodipodi="http://sodipodi.sourceforge.net/DTD/sodipodi-0.dtd"
   xmlns="http://www.w3.org/2000/svg"
   xmlns:svg="http://www.w3.org/2000/svg">
  <g
     aria-label="GET OUTSIDE"
     transform="matrix(0.19569186,0,0,0.19568475,-3.6857492e-4,32)"
     id="text376"
     style="font-size:109.617px;line-height:0;font-family:Michroma;-inkscape-font-specification:Michroma;fill:#ffffff;stroke:#ffffff;stroke-width:8.54215;stroke-miterlimit:1">
    <path
       d="m 92.542407,27.40425 q 0,-6.422871 -1.391622,-10.169545 Q 89.759163,13.48803 86.547727,11.561169 83.336292,9.6343074 78.090947,9.0990682 72.845603,8.5638289 65.138158,8.5638289 H 37.62686 q -6.851062,0 -11.561167,0.4281914 -4.656582,0.3746675 -7.707445,1.6057177 -3.050864,1.23105 -4.710106,3.532579 -1.659241,2.301529 -2.408576,6.101727 -0.749335,3.800199 -0.856383,9.366687 -0.107048,5.512964 -0.107048,13.220409 0,7.707446 0.107048,13.273934 0.160572,5.512964 0.909907,9.313162 0.749335,3.800199 2.355052,6.101728 1.659242,2.301529 4.710106,3.532579 3.050863,1.23105 7.707445,1.659241 4.710105,0.374668 11.561167,0.374668 h 27.564821 q 5.99468,0 10.330118,-0.321144 4.335438,-0.321143 7.386301,-1.177526 3.050864,-0.856383 4.924201,-2.355053 1.873338,-1.498669 2.890292,-3.746674 1.070479,-2.301529 1.445146,-5.459441 0.374668,-3.211435 0.374668,-7.493349 V 51.382968 H 51.328985 V 42.81914 H 102.819 v 13.702125 q 0,5.138297 -0.64229,9.313163 -0.64228,4.121342 -2.301526,7.386301 -1.605717,3.211436 -4.335438,5.566488 -2.72972,2.355053 -6.904586,3.907247 -4.174866,1.49867 -9.95545,2.194481 -5.780583,0.749335 -13.488029,0.749335 H 37.62686 q -9.42021,0 -15.896605,-1.177527 Q 15.307384,83.336751 11.132518,81.035222 6.9576519,78.68017 4.6561232,75.147591 2.4081183,71.615012 1.3376399,66.851382 0.3206853,62.087753 0.16011353,56.093074 -4.5824051e-4,50.098394 -4.5824051e-4,42.81914 q 0,-7.279253 0.16057177051,-13.273933 Q 0.3206853,23.550528 1.3376399,18.786898 2.4081183,14.023269 4.6561232,10.49069 6.9576519,6.9581112 11.132518,4.6565825 15.307384,2.3015298 21.730255,1.1775274 28.20665,1.0728836e-6 37.62686,1.0728836e-6 h 27.511298 q 7.707445,0 13.488028,0.7493349371164 5.780584,0.69581099 9.95545,2.19448089 4.174866,1.445146 6.904587,3.6931508 2.783244,2.2480048 4.388961,5.2988683 1.659246,3.050864 2.301526,6.904586 0.64229,3.853723 0.64229,8.563828 z"
       style="stroke:none"
       id="path3834" />
    <path
       d="M 119.94666,83.925514 V 1.7127666 h 82.21274 v 8.5638284 h -71.93615 v 27.404249 h 68.51062 v 8.563828 h -68.51062 v 29.117014 h 71.93615 v 8.563828 z"
       style="stroke:none"
       id="path3836" />
    <path
       d="M 304.92535,1.7127666 V 10.276595 H 263.81897 V 83.925514 H 253.54238 V 10.276595 H 212.436 V 1.7127666 Z"
       style="stroke:none"
       id="path3838" />
    <path
       d="m 411.17032,1.0728836e-6 q 9.42021,0 15.84308,1.1775263271164 6.47639,1.1240024 10.65126,3.4790551 4.17487,2.3015287 6.42287,5.8341075 2.24801,3.532579 3.26496,8.296208 1.07048,4.76363 1.23105,10.758309 0.2141,5.99468 0.2141,13.273933 0,7.279254 -0.2141,13.273934 -0.16057,5.994679 -1.23105,10.758308 -1.01695,4.76363 -3.26496,8.296209 -2.248,3.532579 -6.42287,5.887631 -4.17487,2.301529 -10.65126,3.425531 -6.42287,1.177527 -15.84308,1.177527 h -30.93683 q -9.42021,0 -15.89661,-1.177527 -6.42287,-1.124002 -10.59773,-3.425531 -4.17487,-2.355052 -6.4764,-5.887631 -2.248,-3.532579 -3.31848,-8.296209 -1.01696,-4.763629 -1.17753,-10.758308 -0.16057,-5.99468 -0.16057,-13.273934 0,-7.279253 0.16057,-13.273933 0.16057,-5.994679 1.17753,-10.758309 1.07048,-4.763629 3.31848,-8.296208 2.30153,-3.5325788 6.4764,-5.8341075 4.17486,-2.3550527 10.59773,-3.4790551 Q 370.81328,1.0728836e-6 380.23349,1.0728836e-6 Z m 0,77.0744509271164 q 6.79754,0 11.45412,-0.374668 4.7101,-0.428191 7.76097,-1.659241 3.05086,-1.23105 4.7101,-3.532579 1.65924,-2.301529 2.40858,-6.101728 0.74933,-3.800198 0.85638,-9.313162 0.16057,-5.566488 0.16057,-13.273934 0,-7.707445 -0.16057,-13.220409 -0.10705,-5.566488 -0.85638,-9.366687 -0.74934,-3.800198 -2.40858,-6.101727 -1.65924,-2.301529 -4.7101,-3.532579 -2.99734,-1.2310502 -7.70745,-1.6057177 -4.65658,-0.4281914 -11.50764,-0.4281914 h -30.93683 q -6.85106,0 -11.56117,0.4281914 -4.65658,0.3746675 -7.70744,1.6057177 -3.05087,1.23105 -4.71011,3.532579 -1.65924,2.301529 -2.40858,6.101727 -0.74933,3.800199 -0.85638,9.366687 -0.10705,5.512964 -0.10705,13.220409 0,7.707446 0.10705,13.273934 0.16057,5.512964 0.90991,9.313162 0.74933,3.800199 2.35505,6.101728 1.65924,2.301529 4.71011,3.532579 3.05086,1.23105 7.70744,1.659241 4.71011,0.374668 11.56117,0.374668 z"
       style="stroke:none"
       id="path3840" />
    <path
       d="M 561.89371,1.7127666 V 42.81914 q 0,7.279254 -0.21409,13.273934 -0.16057,5.994679 -1.23105,10.758308 -1.01696,4.76363 -3.26496,8.296209 -2.24801,3.532579 -6.42287,5.887631 -4.17487,2.301529 -10.65126,3.425531 -6.42287,1.177527 -15.84309,1.177527 h -24.08576 q -9.42021,0 -15.89661,-1.177527 -6.42287,-1.124002 -10.59773,-3.425531 -4.17487,-2.355052 -6.4764,-5.887631 -2.248,-3.532579 -3.31848,-8.296209 -1.01696,-4.763629 -1.17753,-10.758308 -0.16057,-5.99468 -0.16057,-13.273934 V 1.7127666 H 472.8299 V 42.81914 q 0,7.707446 0.10705,13.273934 0.16057,5.512964 0.90991,9.313162 0.74933,3.800199 2.35505,6.101728 1.65924,2.301529 4.71011,3.532579 3.05086,1.23105 7.70744,1.659241 4.71011,0.374668 11.56117,0.374668 h 24.08576 q 6.79754,0 11.50765,-0.374668 4.7101,-0.428191 7.70744,-1.659241 3.05087,-1.23105 4.71011,-3.532579 1.65924,-2.301529 2.40858,-6.101728 0.80285,-3.800198 0.9099,-9.313162 0.10705,-5.566488 0.10705,-13.273934 L 551.5636,1.7127666 Z"
       style="stroke:none"
       id="path3842" />
    <path
       d="M 668.0852,1.7127666 V 10.276595 H 626.97882 V 83.925514 H 616.70223 V 10.276595 H 575.59586 V 1.7127666 Z"
       style="stroke:none"
       id="path3844" />
    <path
       d="m 737.02401,37.680844 q 8.45678,0 14.50499,0.695811 6.0482,0.695811 10.16954,2.087433 4.17487,1.338098 6.63697,3.372007 2.4621,2.033909 3.8002,4.656581 1.33809,2.569149 1.71276,5.780584 0.42819,3.211436 0.42819,6.95811 0,3.746675 -0.69581,7.065158 -0.64228,3.26496 -2.35505,5.99468 -1.71277,2.72972 -4.65658,4.870677 -2.94382,2.140957 -7.49335,3.639627 -4.54953,1.49867 -10.97241,2.248005 -6.36934,0.802858 -14.93317,0.802858 h -13.70212 q -7.70745,0 -13.48803,-0.588763 -5.78059,-0.588763 -9.95545,-1.766289 -4.17487,-1.23105 -6.90459,-3.050864 -2.72972,-1.873337 -4.38896,-4.335438 -1.60572,-2.515624 -2.24801,-5.673536 -0.64228,-3.211435 -0.64228,-7.065158 h 10.27659 q 0,4.817154 1.39162,7.546874 1.39162,2.72972 4.60306,4.121342 3.21143,1.338098 8.40326,1.712765 5.24534,0.321144 12.95279,0.321144 h 13.70212 q 8.99202,0 14.93317,-0.856383 5.94116,-0.856383 9.47374,-2.72972 3.53258,-1.873337 4.97772,-4.870677 1.44515,-3.050864 1.44515,-7.386302 0,-4.335438 -1.01695,-7.225729 -0.96344,-2.890292 -3.90725,-4.603058 -2.89029,-1.712765 -8.18916,-2.408576 -5.29887,-0.749335 -13.8627,-0.749335 H 722.8937 q -9.42021,0 -16.16423,-0.695811 -6.69049,-0.695811 -11.24002,-1.980386 -4.54954,-1.338098 -7.27926,-3.264959 -2.72972,-1.980385 -4.17486,-4.49601 -1.39162,-2.515624 -1.81982,-5.566488 -0.42819,-3.104387 -0.42819,-6.69049 0,-3.746675 0.64229,-6.95811 0.69581,-3.211436 2.51562,-5.780584 1.81982,-2.6226725 4.97773,-4.6565816 3.15791,-2.0339092 8.08211,-3.3720073 4.97773,-1.391622 11.93584,-2.08743301 Q 716.89902,1.0728836e-6 726.31923,1.0728836e-6 h 10.27659 q 7.70745,0 13.48803,0.5887631671164 5.78058,0.53523926 9.95545,1.76628946 4.17487,1.1775264 6.90459,2.9973398 2.78324,1.7662895 4.38896,4.2819139 1.65924,2.4621006 2.30153,5.6200116 0.64228,3.157912 0.64228,7.011635 h -10.27659 q 0,-4.817154 -1.39162,-7.546874 -1.39162,-2.72972 -4.60306,-4.067818 -3.21143,-1.391622 -8.45678,-1.7127656 -5.24534,-0.3746675 -12.95279,-0.3746675 h -10.27659 q -10.2766,0 -16.91356,0.749335 -6.63697,0.6958111 -10.49069,2.4085761 -3.85372,1.712766 -5.35239,4.603058 -1.49867,2.890292 -1.49867,7.22573 0,2.676196 0.37466,4.763629 0.37467,2.087433 1.49867,3.693151 1.17753,1.552194 3.26496,2.622672 2.08744,1.070479 5.51297,1.76629 3.42553,0.695811 8.34973,1.016954 4.97772,0.26762 11.82879,0.26762 z"
       style="stroke:none"
       id="path3846" />
    <path
       d="m 791.40432,1.7127666 h 10.27659 V 83.925514 h -10.27659 z"
       style="stroke:none"
       id="path3848" />
    <path
       d="m 883.84013,75.361686 q 6.79754,0 11.50764,-0.374667 4.71011,-0.374668 7.76097,-1.49867 3.05087,-1.177526 4.71011,-3.372007 1.65924,-2.194481 2.40858,-5.780584 0.80285,-3.639627 0.9099,-8.884971 0.16057,-5.298869 0.16057,-12.631647 0,-7.332777 -0.16057,-12.578122 -0.10705,-5.298868 -0.9099,-8.884971 -0.74934,-3.639627 -2.40858,-5.834108 -1.65924,-2.194481 -4.71011,-3.318483 -3.05086,-1.177527 -7.76097,-1.552194 -4.65658,-0.374667 -11.50764,-0.374667 h -51.32944 v 65.085091 z m -61.60604,8.563828 V 1.7127666 h 61.60604 q 9.42021,0 15.84308,1.1240025 6.4764,1.0704784 10.65126,3.3184833 4.22839,2.2480048 6.4764,5.6200116 2.30153,3.372008 3.31848,7.975065 1.07048,4.549534 1.23105,10.330117 0.2141,5.72706 0.2141,12.738694 0,7.011635 -0.2141,12.792218 -0.16057,5.72706 -1.23105,10.330118 -1.01695,4.549533 -3.31848,7.92154 -2.24801,3.372008 -6.4764,5.620013 -4.17486,2.248004 -10.65126,3.372007 -6.42287,1.070478 -15.84308,1.070478 z"
       style="stroke:none"
       id="path3850" />
    <path
       d="M 938.70211,83.925514 V 1.7127666 h 82.21279 v 8.5638284 h -71.9362 v 27.404249 h 68.5106 v 8.563828 h -68.5106 v 29.117014 h 71.9362 v 8.563828 z"
       style="stroke:none"
       id="path3852" />
  </g>
  <sodipodi:namedview
     id="namedview7"
     pagecolor="#505050"
     bordercolor="#ffffff"
     borderopacity="1"
     inkscape:showpageshadow="0"
     inkscape:pageopacity="0"
     inkscape:pagecheckerboard="1"
     inkscape:deskcolor="#505050"
     inkscape:document-units="px"
     showgrid="false"
     inkscape:zoom="4.0516981"
     inkscape:cx="126.86039"
     inkscape:cy="45.783273"
     inkscape:window-width="1920"
     inkscape:window-height="991"
     inkscape:window-x="-9"
     inkscape:window-y="-9"
     inkscape:window-maximized="1"
     inkscape:current-layer="svg5" />
  <defs
     id="defs2" />
</svg>
